<svg width="20" height="20" viewBox="0 0 20 20" fill="none" xmlns="http://www.w3.org/2000/svg">
<g clip-path="url(#clip0)">
<path d="M19.3346 4.58176C18.9354 4.16351 18.384 3.91636 17.7567 3.91636H14.6008V3.87834C14.6008 3.40305 14.4106 2.94678 14.0875 2.6426C13.7643 2.3194 13.327 2.12929 12.8517 2.12929H7.14829C6.65399 2.12929 6.21673 2.3194 5.89354 2.6426C5.57034 2.96579 5.38023 3.40305 5.38023 3.87834V3.91636H2.24335C1.61597 3.91636 1.06464 4.16351 0.665399 4.58176C0.26616 4.981 0 5.55134 0 6.15971V15.6274C0 16.2548 0.247148 16.8061 0.665399 17.2053C1.06464 17.6046 1.63498 17.8707 2.24335 17.8707H17.7567C18.384 17.8707 18.9354 17.6236 19.3346 17.2053C19.7338 16.8061 20 16.2358 20 15.6274V6.15971C20 5.53233 19.7529 4.981 19.3346 4.58176ZM19.0114 15.6274H18.9924C18.9924 15.9696 18.8593 16.2738 18.6312 16.5019C18.403 16.7301 18.0989 16.8631 17.7567 16.8631H2.24335C1.90114 16.8631 1.59696 16.7301 1.36882 16.5019C1.14068 16.2738 1.0076 15.9696 1.0076 15.6274V6.15971C1.0076 5.8175 1.14068 5.51332 1.36882 5.28518C1.59696 5.05704 1.90114 4.92396 2.24335 4.92396H5.91255C6.19772 4.92396 6.42586 4.69583 6.42586 4.41066V3.85933C6.42586 3.6502 6.5019 3.46009 6.63498 3.32701C6.76806 3.19393 6.95818 3.11788 7.1673 3.11788H12.8517C13.0608 3.11788 13.251 3.19393 13.384 3.32701C13.5171 3.46009 13.5932 3.6502 13.5932 3.85933V4.41066C13.5932 4.69583 13.8213 4.92396 14.1065 4.92396H17.7757C18.1179 4.92396 18.4221 5.05704 18.6502 5.28518C18.8783 5.51332 19.0114 5.8175 19.0114 6.15971V15.6274Z" fill="white"/>
<path d="M10 6.21674C8.70723 6.21674 7.52852 6.74906 6.69202 7.58556C5.8365 8.44107 5.3232 9.60077 5.3232 10.8935C5.3232 12.1863 5.85552 13.365 6.69202 14.2015C7.54753 15.057 8.70723 15.5703 10 15.5703C11.2928 15.5703 12.4715 15.038 13.308 14.2015C14.1635 13.346 14.6768 12.1863 14.6768 10.8935C14.6768 9.60077 14.1445 8.42206 13.308 7.58556C12.4715 6.74906 11.2928 6.21674 10 6.21674ZM12.5856 13.4981C11.9202 14.1445 11.0076 14.5627 10 14.5627C8.9924 14.5627 8.07985 14.1445 7.41445 13.4981C6.74905 12.8327 6.34981 11.9202 6.34981 10.9126C6.34981 9.90495 6.76806 8.9924 7.41445 8.327C8.07985 7.6616 8.9924 7.26236 10 7.26236C11.0076 7.26236 11.9202 7.68061 12.5856 8.327C13.251 8.9924 13.6502 9.90495 13.6502 10.9126C13.6692 11.9202 13.251 12.8327 12.5856 13.4981Z" fill="white"/>
<path d="M16.7681 8.06084C17.2825 8.06084 17.6996 7.64377 17.6996 7.12928C17.6996 6.6148 17.2825 6.19772 16.7681 6.19772C16.2536 6.19772 15.8365 6.6148 15.8365 7.12928C15.8365 7.64377 16.2536 8.06084 16.7681 8.06084Z" fill="white"/>
</g>
<defs>
<clipPath id="clip0">
<rect width="20" height="20" fill="white"/>
</clipPath>
</defs>
</svg>
