<svg width="19" height="19" viewBox="0 0 19 19" fill="none" xmlns="http://www.w3.org/2000/svg">
<g clip-path="url(#clip0)">
<path d="M13.817 19C13.684 19 13.5478 18.9834 13.4132 18.9478L1.17167 15.6695C0.332499 15.4383 -0.167834 14.5691 0.0522493 13.7299L1.59679 7.97289C1.65379 7.76151 1.87071 7.6388 2.08129 7.69263C2.29267 7.74884 2.41775 7.96655 2.36154 8.17714L0.817791 13.9326C0.707749 14.3521 0.959499 14.7891 1.37987 14.9055L13.6167 18.1822C14.037 18.2931 14.4709 18.0429 14.5801 17.6249L15.1984 15.3338C15.2554 15.1224 15.4723 14.9966 15.6837 15.0543C15.8951 15.1113 16.0194 15.3291 15.9632 15.5396L15.3457 17.8276C15.1596 18.5321 14.5184 19 13.817 19V19Z" fill="white"/>
<path d="M17.4167 14.25H4.75C3.8768 14.25 3.16667 13.5399 3.16667 12.6667V3.16666C3.16667 2.29345 3.8768 1.58333 4.75 1.58333H17.4167C18.2899 1.58333 19 2.29345 19 3.16666V12.6667C19 13.5399 18.2899 14.25 17.4167 14.25ZM4.75 2.37499C4.3138 2.37499 3.95834 2.73045 3.95834 3.16666V12.6667C3.95834 13.1029 4.3138 13.4583 4.75 13.4583H17.4167C17.8529 13.4583 18.2083 13.1029 18.2083 12.6667V3.16666C18.2083 2.73045 17.8529 2.37499 17.4167 2.37499H4.75Z" fill="white"/>
<path d="M7.125 7.125C6.25179 7.125 5.54166 6.41487 5.54166 5.54166C5.54166 4.66845 6.25179 3.95833 7.125 3.95833C7.99821 3.95833 8.70833 4.66845 8.70833 5.54166C8.70833 6.41487 7.99821 7.125 7.125 7.125ZM7.125 4.74999C6.68879 4.74999 6.33333 5.10545 6.33333 5.54166C6.33333 5.97787 6.68879 6.33333 7.125 6.33333C7.56121 6.33333 7.91666 5.97787 7.91666 5.54166C7.91666 5.10545 7.56121 4.74999 7.125 4.74999Z" fill="white"/>
<path d="M3.61792 13.4029C3.51658 13.4029 3.41525 13.3641 3.33767 13.2873C3.18329 13.133 3.18329 12.882 3.33767 12.7276L7.07671 8.98858C7.52479 8.5405 8.30775 8.5405 8.75583 8.98858L9.86892 10.1017L12.9501 6.40458C13.1741 6.13621 13.5035 5.98025 13.8542 5.97708H13.8629C14.2096 5.97708 14.5382 6.1275 14.7646 6.39112L18.905 11.2219C19.0475 11.3873 19.0285 11.6375 18.8622 11.78C18.6968 11.9225 18.4474 11.9043 18.3041 11.7372L14.1637 6.9065C14.0869 6.81783 13.9808 6.76875 13.8629 6.76875C13.7805 6.76162 13.6357 6.81862 13.5589 6.91125L10.1998 10.9416C10.1286 11.0271 10.0249 11.0786 9.91325 11.0833C9.80083 11.0912 9.69396 11.0469 9.61558 10.9677L8.19612 9.54829C8.0465 9.39946 7.78604 9.39946 7.63642 9.54829L3.89737 13.2873C3.82058 13.3641 3.71925 13.4029 3.61792 13.4029V13.4029Z" fill="white"/>
</g>
<defs>
<clipPath id="clip0">
<rect width="19" height="19" fill="white"/>
</clipPath>
</defs>
</svg>
